<svg width="21" height="20" viewBox="0 0 21 20" fill="none" xmlns="http://www.w3.org/2000/svg">
<path d="M13.8333 10.75V14.25C13.8333 17.1667 12.6666 18.3334 9.74996 18.3334H6.24996C3.33329 18.3334 2.16663 17.1667 2.16663 14.25V10.75C2.16663 7.83335 3.33329 6.66669 6.24996 6.66669H9.74996C12.6666 6.66669 13.8333 7.83335 13.8333 10.75Z" stroke="#7B4AFF" stroke-width="1.5" stroke-linecap="round" stroke-linejoin="round"/>
<path d="M18.8333 5.75002V9.25002C18.8333 12.1667 17.6666 13.3334 14.75 13.3334H13.8333V10.75C13.8333 7.83335 12.6666 6.66669 9.74996 6.66669H7.16663V5.75002C7.16663 2.83335 8.33329 1.66669 11.25 1.66669H14.75C17.6666 1.66669 18.8333 2.83335 18.8333 5.75002Z" stroke="#7B4AFF" stroke-width="1.5" stroke-linecap="round" stroke-linejoin="round"/>
</svg>
