<svg width="17" height="16" viewBox="0 0 17 16" fill="none" xmlns="http://www.w3.org/2000/svg">
<path d="M8.49998 1.33331C4.82665 1.33331 1.83331 4.32665 1.83331 7.99998C1.83331 11.6733 4.82665 14.6666 8.49998 14.6666C12.1733 14.6666 15.1666 11.6733 15.1666 7.99998C15.1666 4.32665 12.1733 1.33331 8.49998 1.33331ZM7.99998 5.33331C7.99998 5.05998 8.22665 4.83331 8.49998 4.83331C8.77331 4.83331 8.99998 5.05998 8.99998 5.33331V8.66665C8.99998 8.93998 8.77331 9.16665 8.49998 9.16665C8.22665 9.16665 7.99998 8.93998 7.99998 8.66665V5.33331ZM9.11331 10.92C9.07998 11.0066 9.03331 11.0733 8.97331 11.14C8.90665 11.2 8.83331 11.2466 8.75331 11.28C8.67331 11.3133 8.58665 11.3333 8.49998 11.3333C8.41331 11.3333 8.32665 11.3133 8.24665 11.28C8.16665 11.2466 8.09331 11.2 8.02665 11.14C7.96665 11.0733 7.91998 11.0066 7.88665 10.92C7.85331 10.84 7.83331 10.7533 7.83331 10.6666C7.83331 10.58 7.85331 10.4933 7.88665 10.4133C7.91998 10.3333 7.96665 10.26 8.02665 10.1933C8.09331 10.1333 8.16665 10.0866 8.24665 10.0533C8.40665 9.98665 8.59331 9.98665 8.75331 10.0533C8.83331 10.0866 8.90665 10.1333 8.97331 10.1933C9.03331 10.26 9.07998 10.3333 9.11331 10.4133C9.14665 10.4933 9.16665 10.58 9.16665 10.6666C9.16665 10.7533 9.14665 10.84 9.11331 10.92Z" fill="#7B4AFF"/>
</svg>
