<svg width="20" height="20" viewBox="0 0 20 20" fill="none" xmlns="http://www.w3.org/2000/svg">
<path d="M10.55 2.09847L10.525 2.1568L8.10836 7.76513H5.73336C5.1667 7.76513 4.62503 7.8818 4.13336 8.09013L5.5917 4.6068L5.62503 4.52347L5.68336 4.39013C5.70003 4.34013 5.7167 4.29013 5.7417 4.24847C6.83336 1.72347 8.0667 1.14847 10.55 2.09847Z" stroke="black" stroke-width="1.5" stroke-linecap="round" stroke-linejoin="round"/>
<path d="M15.0417 7.93178C14.6667 7.81512 14.2667 7.76512 13.8667 7.76512H8.10834L10.525 2.15678L10.55 2.09845C10.675 2.14012 10.7917 2.19845 10.9167 2.24845L12.7583 3.02345C13.7833 3.44845 14.5 3.89012 14.9333 4.42345C15.0167 4.52345 15.0833 4.61512 15.1417 4.72345C15.2167 4.84012 15.275 4.95678 15.3083 5.08178C15.3417 5.15678 15.3667 5.23178 15.3833 5.29845C15.6083 5.99845 15.475 6.85678 15.0417 7.93178Z" stroke="black" stroke-width="1.5" stroke-linecap="round" stroke-linejoin="round"/>
<path d="M17.9348 11.832V13.457C17.9348 13.6237 17.9265 13.7903 17.9181 13.957C17.7598 16.8653 16.1348 18.332 13.0515 18.332H6.55145C6.35145 18.332 6.15145 18.3153 5.95979 18.2903C3.30979 18.1153 1.89312 16.6987 1.71812 14.0487C1.69312 13.857 1.67645 13.657 1.67645 13.457V11.832C1.67645 10.157 2.69312 8.71532 4.14312 8.09032C4.64312 7.88199 5.17645 7.76532 5.74312 7.76532H13.8765C14.2848 7.76532 14.6848 7.82365 15.0515 7.93199C16.7098 8.44032 17.9348 9.99032 17.9348 11.832Z" stroke="black" stroke-width="1.5" stroke-linecap="round" stroke-linejoin="round"/>
<path d="M5.59169 4.60675L4.13335 8.09008C2.68335 8.71508 1.66669 10.1568 1.66669 11.8318V9.39008C1.66669 7.02342 3.35002 5.04842 5.59169 4.60675Z" stroke="black" stroke-width="1.5" stroke-linecap="round" stroke-linejoin="round"/>
<path d="M17.9322 9.38969V11.8314C17.9322 9.99803 16.7155 8.43969 15.0488 7.93969C15.4822 6.85636 15.6072 6.00636 15.3988 5.29803C15.3822 5.22303 15.3572 5.14803 15.3238 5.08136C16.8738 5.88136 17.9322 7.52303 17.9322 9.38969Z" stroke="black" stroke-width="1.5" stroke-linecap="round" stroke-linejoin="round"/>
</svg>
